<svg version="1.1" id="Layer_1" xmlns="http://www.w3.org/2000/svg" xmlns:xlink="http://www.w3.org/1999/xlink" x="0px" y="0px"
	 width="100%" viewBox="0 0 3508 1351" enable-background="new 0 0 3508 1351" xml:space="preserve">
<path fill="#FFFFFF" opacity="1.000000" stroke="none" 
	d="
M2138.000000,1354.000000 
	C1425.333374,1354.000000 713.666687,1354.000000 2.000000,1354.000000 
	C2.000000,903.333313 2.000000,452.666656 2.000000,2.000000 
	C1171.333374,2.000000 2340.666748,2.000000 3510.000000,2.000000 
	C3510.000000,452.666656 3510.000000,903.333313 3510.000000,1354.000000 
	C3053.000000,1354.000000 2596.000000,1354.000000 2138.000000,1354.000000 
M450.349152,547.993835 
	C441.397034,542.486023 432.444885,536.978271 422.339264,530.760803 
	C421.291290,532.585815 420.663086,533.770142 419.950775,534.901550 
	C418.536163,537.148376 416.999695,539.321228 415.646423,541.603455 
	C409.994598,551.134888 409.912384,551.303162 418.985260,557.077209 
	C439.451172,570.101929 460.021210,582.963074 480.562042,595.869934 
	C484.145264,598.121460 487.792633,600.270874 492.274109,602.991882 
	C495.661926,597.976013 498.743713,593.769653 501.440582,589.329529 
	C504.771729,583.845032 504.477997,582.411194 499.061646,578.834717 
	C491.853699,574.075073 484.411163,569.671997 477.158630,564.977844 
	C475.454712,563.875061 474.108276,562.219910 471.586182,559.881287 
	C484.083221,558.950256 494.972015,557.602356 505.875183,557.473572 
	C517.396057,557.337585 526.612061,554.469055 530.863708,542.594543 
	C531.302002,541.370483 532.619812,540.382080 532.816467,539.168701 
	C533.147766,537.124756 532.907227,534.988159 532.907227,532.139160 
	C512.227539,533.945374 492.565125,535.662720 472.916168,537.378906 
	C467.721100,522.515259 462.861847,508.403992 457.823975,494.356750 
	C456.676147,491.156158 456.347412,486.811432 450.372589,487.259521 
	C448.746368,489.569305 447.061737,492.417297 444.938995,494.889008 
	C439.278839,501.479645 439.304901,508.033997 442.681641,516.002808 
	C446.927368,526.022400 449.566650,536.722778 452.283966,547.720459 
	C452.283966,547.720459 451.690216,548.333008 450.349152,547.993835 
M2055.701660,757.000000 
	C2055.240234,735.061890 2055.233643,713.102478 2054.206299,691.190918 
	C2052.837891,662.011353 2045.690430,634.011719 2033.571899,607.499756 
	C2012.464233,561.321899 1978.239502,529.151733 1929.724243,512.970459 
	C1892.748535,500.637939 1854.917725,498.247467 1816.486572,504.000916 
	C1760.694946,512.353333 1714.972412,538.169983 1680.010742,582.695862 
	C1661.936646,605.714111 1648.986206,631.409973 1639.643433,659.029358 
	C1639.002930,660.922913 1638.483887,662.867798 1637.701050,664.700195 
	C1636.959351,666.436401 1635.944458,668.055969 1635.049805,669.726807 
	C1634.588867,669.571655 1634.127930,669.416443 1633.666992,669.261292 
	C1633.666992,617.751648 1633.666992,566.242065 1633.666992,514.018921 
	C1625.022339,514.018921 1617.076904,514.018982 1609.131348,514.018982 
	C1600.799438,514.018982 1592.467651,514.018982 1584.135742,514.018982 
	C1576.137085,514.018982 1568.138550,514.018982 1560.139893,514.018982 
	C1551.807983,514.018982 1543.476074,514.018982 1535.144165,514.018982 
	C1527.145508,514.018982 1519.146973,514.018982 1511.148315,514.018982 
	C1502.816406,514.018982 1494.484497,514.018982 1486.152588,514.018982 
	C1478.153931,514.018982 1470.155396,514.018982 1462.156738,514.018982 
	C1453.824829,514.018982 1445.493042,514.018982 1437.161133,514.018982 
	C1429.162476,514.018982 1421.163818,514.018982 1413.165161,514.018982 
	C1404.833252,514.018982 1396.501465,514.018982 1388.169556,514.018982 
	C1380.170898,514.018982 1372.163330,513.781982 1364.176270,514.085449 
	C1356.147583,514.390564 1347.941528,512.758850 1337.903442,515.804749 
	C1342.093018,518.674683 1344.717285,520.457520 1347.326416,522.262207 
	C1356.348755,528.502869 1365.723999,534.299011 1374.307007,541.095215 
	C1389.813232,553.373413 1399.177368,569.756348 1402.097168,589.207764 
	C1404.307739,603.934998 1406.087280,618.894287 1406.121460,633.754761 
	C1406.425659,766.064514 1406.362305,898.375366 1406.189941,1030.685669 
	C1406.174438,1042.602051 1405.175293,1054.584961 1403.681885,1066.416870 
	C1400.951782,1088.047729 1391.772095,1106.419312 1374.058594,1119.862549 
	C1366.644775,1125.489014 1359.049805,1130.876343 1351.605469,1136.463379 
	C1349.892456,1137.749023 1348.460083,1139.408691 1346.841431,1140.950684 
	C1347.930054,1141.916504 1348.359253,1142.615479 1348.902710,1142.720093 
	C1350.524292,1143.031616 1352.190674,1143.260498 1353.839355,1143.258667 
	C1466.804199,1143.129517 1579.769165,1142.974976 1692.734009,1142.791382 
	C1692.951050,1142.791138 1693.197266,1142.348755 1693.375244,1142.077026 
	C1693.545166,1141.817627 1693.643188,1141.511230 1694.247925,1140.178589 
	C1691.938232,1138.430908 1689.419067,1136.516724 1686.891602,1134.613770 
	C1679.191895,1128.816772 1671.236938,1123.326660 1663.844116,1117.162109 
	C1651.468994,1106.842773 1642.635864,1093.805908 1640.024048,1077.856323 
	C1637.243530,1060.876831 1634.583130,1043.623901 1634.566895,1026.487793 
	C1634.480225,934.894409 1635.033936,843.298401 1635.839233,751.707458 
	C1636.050537,727.662842 1641.081909,704.240417 1649.228149,681.555847 
	C1655.031128,665.396973 1663.362671,650.575684 1675.145142,638.182922 
	C1690.322998,622.218872 1709.200928,613.332153 1731.349854,610.860779 
	C1767.662842,606.809082 1799.263794,622.095764 1814.977783,654.067810 
	C1823.626343,671.664001 1827.563599,690.541870 1827.604492,710.004333 
	C1827.801636,803.987671 1827.776367,897.971863 1827.629517,991.955383 
	C1827.596680,1012.902771 1827.044312,1033.860352 1826.214355,1054.792725 
	C1825.117310,1082.462158 1815.044189,1105.888184 1792.190552,1122.748413 
	C1785.769043,1127.485840 1779.101929,1131.889648 1772.654785,1136.593506 
	C1771.020874,1137.785522 1769.798950,1139.541992 1766.816284,1142.706177 
	C1772.877319,1142.959595 1776.750732,1143.262207 1780.624146,1143.263184 
	C1888.272217,1143.288696 1995.920288,1143.283936 2103.568359,1143.282349 
	C2105.901123,1143.282349 2108.265625,1143.490845 2110.556396,1143.175903 
	C2112.239990,1142.944336 2113.827637,1142.015137 2116.660156,1140.940918 
	C2107.545410,1134.321411 2099.492188,1128.620972 2091.596436,1122.709961 
	C2070.589600,1106.983032 2059.380615,1085.768677 2057.854004,1059.760254 
	C2056.626953,1038.856445 2055.856445,1017.896362 2055.794922,996.958679 
	C2055.562744,917.639709 2055.701904,838.319641 2055.701660,757.000000 
M572.500610,787.811279 
	C595.251343,758.973938 642.063904,740.500122 659.482910,742.749817 
	C659.253723,744.315979 659.110413,745.891357 658.785278,747.428284 
	C653.064880,774.466675 650.051086,801.793579 650.355896,829.437561 
	C650.443542,837.383484 651.302368,845.318237 651.672058,853.264343 
	C653.402405,890.449219 661.033875,926.371643 674.969360,960.888428 
	C703.354187,1031.194946 752.051147,1082.900513 819.494202,1116.912354 
	C864.398376,1139.557739 912.554504,1150.672485 962.545654,1153.083374 
	C1002.944275,1155.031494 1042.996948,1151.508545 1082.030029,1139.945801 
	C1173.678589,1112.796997 1237.113159,1055.075928 1270.868286,965.348267 
	C1273.994263,957.038818 1276.203247,948.384460 1279.060547,939.172729 
	C1275.154663,937.670227 1272.265991,936.559021 1269.644409,935.550598 
	C1262.876953,946.265076 1257.031738,956.329651 1250.408936,965.853516 
	C1230.418091,994.601929 1204.677856,1016.532043 1172.416138,1030.610596 
	C1137.103882,1046.020386 1100.199219,1050.919800 1062.141113,1046.729248 
	C989.611755,1038.742920 939.398132,999.519470 908.516724,934.594482 
	C891.004272,897.776367 883.854187,858.280151 881.814087,817.809204 
	C881.254578,806.710876 881.729065,795.560425 881.729065,783.086670 
	C886.691772,785.173706 890.064941,786.433716 893.302185,787.978455 
	C925.727905,803.451477 957.885620,819.513428 990.601135,834.345764 
	C1035.182373,854.557861 1080.936157,871.630066 1129.171875,881.146851 
	C1156.702637,886.578613 1184.346191,889.319153 1212.275269,884.032471 
	C1257.010986,875.564514 1286.775635,844.081970 1285.583740,795.085144 
	C1285.221558,780.193970 1283.714111,765.312195 1282.285400,750.469055 
	C1278.585693,712.030334 1268.093628,675.569641 1250.551758,641.070740 
	C1226.054199,592.892395 1189.630615,556.718628 1141.684814,532.159180 
	C1095.108398,508.301208 1044.944214,499.358582 993.183411,498.093811 
	C948.897400,497.011749 905.663879,503.510925 863.738953,518.060364 
	C821.055115,532.873230 782.942566,555.460022 749.831238,586.183716 
	C717.917053,615.796570 693.533386,650.877197 676.803833,691.051392 
	C674.131226,697.469421 670.377625,699.432861 664.344727,700.049438 
	C647.365173,701.784607 631.010498,706.218201 615.011902,712.037598 
	C587.585022,722.013855 563.972046,737.739624 544.553284,759.526306 
	C540.071777,764.554260 535.181335,769.595337 533.227966,776.722290 
	C542.653381,781.912903 551.655212,786.891052 560.677673,791.831665 
	C566.672607,795.114319 566.685791,795.090210 572.500610,787.811279 
M2561.000000,514.017090 
	C2462.349609,514.017090 2363.698975,514.196655 2265.049561,513.883423 
	C2242.067139,513.810425 2219.299561,510.730255 2197.272461,503.549530 
	C2195.260498,502.893677 2193.104736,502.680359 2190.505127,502.159241 
	C2184.579102,579.837036 2178.716797,656.677429 2172.850342,733.572632 
	C2179.059814,734.254150 2179.660400,729.609619 2181.578613,726.932800 
	C2200.171631,700.987366 2218.189941,674.620850 2237.170654,648.965088 
	C2256.214600,623.223633 2277.719971,599.648315 2303.125732,579.878784 
	C2335.847900,554.416016 2373.067871,542.183716 2414.372070,542.046936 
	C2443.033936,541.952026 2471.696533,542.028625 2500.358643,542.028625 
	C2503.202881,542.028625 2506.047119,542.028625 2510.609619,542.028625 
	C2389.599854,742.815735 2269.166504,941.798096 2148.883057,1141.376099 
	C2157.776855,1143.704956 2730.560059,1144.035156 2741.353027,1141.941528 
	C2753.281738,1062.637207 2765.254883,983.041748 2777.199707,903.442139 
	C2777.231201,903.231506 2776.892578,902.894348 2776.649414,902.732666 
	C2776.382812,902.555054 2776.026123,902.512634 2774.955078,902.170776 
	C2773.279297,904.107178 2771.215576,906.151611 2769.543945,908.477722 
	C2757.899170,924.684143 2746.499268,941.068787 2734.711914,957.170044 
	C2710.147461,990.723877 2685.261963,1023.983154 2655.675049,1053.475342 
	C2614.643311,1094.375610 2564.980957,1113.994263 2507.540283,1114.765137 
	C2479.216553,1115.145386 2450.883545,1114.830933 2422.554688,1114.830933 
	C2419.363281,1114.830933 2416.171875,1114.830933 2411.280273,1114.830933 
	C2413.897217,1110.089844 2415.517334,1106.930908 2417.337646,1103.891846 
	C2438.027100,1069.349243 2458.804688,1034.859619 2479.448730,1000.290039 
	C2546.994873,887.181213 2614.492676,774.043640 2682.013672,660.919739 
	C2708.957275,615.779541 2735.925781,570.654358 2762.832520,525.492249 
	C2764.780029,522.222900 2766.314697,518.707397 2768.695801,514.017151 
	C2698.887939,514.017151 2630.944092,514.017151 2561.000000,514.017090 
M3116.306641,709.000000 
	C3116.306641,676.682739 3116.307129,644.365479 3116.306396,612.048218 
	C3116.305908,579.565369 3116.304199,547.082458 3116.302979,514.025635 
	C3018.895508,514.025635 2922.985840,514.024048 2827.076416,514.041748 
	C2825.756348,514.041992 2824.432129,514.255005 2823.120605,514.443542 
	C2822.891846,514.476501 2822.691162,514.867493 2822.524658,515.123657 
	C2822.343994,515.401245 2822.217773,515.714294 2821.666748,516.807434 
	C2823.497803,518.261353 2825.363770,519.992310 2827.464844,521.362488 
	C2832.758789,524.814453 2838.156494,528.106873 2843.515869,531.458008 
	C2867.519775,546.467163 2882.125244,567.764404 2885.437744,596.018372 
	C2887.098145,610.176208 2888.156006,624.493469 2888.178467,638.740723 
	C2888.383057,767.676514 2888.375732,896.612854 2888.184326,1025.548706 
	C2888.164062,1039.130737 2887.206543,1052.790771 2885.526123,1066.270264 
	C2883.527344,1082.303955 2878.798096,1097.747437 2866.681396,1109.283569 
	C2857.590820,1117.938232 2847.482910,1125.529175 2837.759277,1133.509766 
	C2834.827637,1135.916016 2831.665527,1138.041382 2827.530273,1141.090942 
	C2830.444092,1142.258789 2831.591553,1143.120972 2832.739502,1143.121338 
	C2946.345215,1143.160522 3059.950928,1143.137573 3173.556641,1143.052002 
	C3174.342041,1143.051392 3175.127197,1142.133911 3176.806641,1141.087280 
	C3174.514404,1139.115234 3172.724365,1137.340210 3170.705322,1135.882568 
	C3165.046875,1131.797974 3159.236816,1127.923462 3153.588867,1123.824951 
	C3136.190430,1111.199585 3124.157227,1094.687866 3120.539307,1073.374146 
	C3118.050781,1058.713257 3116.531738,1043.702393 3116.484863,1028.841919 
	C3116.150635,922.895508 3116.306396,816.947510 3116.306641,709.000000 
M2884.449951,245.483780 
	C2866.911621,266.228638 2857.061768,290.276306 2855.920654,317.286041 
	C2853.839600,366.553314 2873.230469,405.535400 2915.523682,431.363190 
	C2950.315430,452.609741 2988.257080,455.365906 3027.116699,444.527130 
	C3063.259521,434.446045 3090.310303,412.562744 3107.032471,378.852234 
	C3116.936523,358.886444 3120.145996,337.522766 3118.448975,315.147552 
	C3116.099609,284.169708 3103.903076,258.100464 3081.234619,237.148621 
	C3051.192627,209.381592 3015.246826,198.990860 2974.822510,201.897064 
	C2939.372803,204.445633 2909.453857,218.140610 2884.449951,245.483780 
M356.429749,763.074341 
	C347.498322,768.337646 342.318268,775.971680 341.544342,786.448486 
	C340.518524,800.335510 339.298035,814.211304 338.578186,828.113464 
	C338.496399,829.693420 340.837067,831.810974 342.545105,832.931030 
	C343.745148,833.717896 345.779388,833.218201 347.439453,833.319946 
	C368.984100,834.639832 390.521851,836.089417 412.076294,837.222168 
	C419.885345,837.632568 427.734070,837.288147 435.583313,837.288147 
	C436.192749,831.870728 436.691101,827.274780 437.230865,822.683777 
	C437.961273,816.471191 436.964508,815.224182 430.298920,814.833313 
	C423.660461,814.444092 417.000641,814.398071 410.367615,813.946167 
	C406.911926,813.710754 403.493744,812.924927 400.562592,812.466553 
	C399.141327,806.988220 400.645874,804.478943 404.808899,802.775513 
	C414.652466,798.747803 424.371674,794.406189 434.046631,789.984680 
	C436.019287,789.083252 438.918427,787.426575 439.096008,785.858215 
	C439.892395,778.823364 440.719208,771.644592 438.326233,763.017151 
	C431.626587,766.155884 425.738220,768.933777 419.833130,771.675781 
	C413.594971,774.572449 407.340912,777.434937 401.250061,780.240356 
	C386.400726,759.342102 376.651489,755.435852 356.429749,763.074341 
M460.490509,1075.904175 
	C455.678558,1066.163696 450.866577,1056.423218 445.680054,1045.924438 
	C456.917084,1040.088257 467.443817,1034.620972 478.139526,1029.065918 
	C478.157990,1020.892517 473.558380,1015.279297 469.244965,1008.107910 
	C440.462708,1022.483887 412.087952,1036.656372 383.350739,1051.009888 
	C384.679871,1059.502686 388.198547,1065.835938 393.860443,1071.698975 
	C404.552002,1066.485474 414.896545,1061.441162 425.909424,1056.070923 
	C431.607086,1067.425903 437.042969,1078.259033 442.750824,1089.634277 
	C431.527283,1095.427856 421.028503,1100.847412 409.747284,1106.670898 
	C413.519897,1114.007324 416.744354,1120.277832 420.340790,1127.271729 
	C449.906097,1112.190552 478.176117,1097.770020 507.322235,1082.902710 
	C503.772522,1075.841309 500.728210,1069.785400 497.302734,1062.971069 
	C493.380066,1064.794678 490.413666,1066.111694 487.501587,1067.539551 
	C480.341827,1071.050049 473.200256,1074.597900 466.066620,1078.161133 
	C464.130463,1079.128174 462.348358,1079.733521 460.490509,1075.904175 
M540.346741,474.648834 
	C544.952026,486.712585 546.665222,499.970947 554.739868,512.429199 
	C560.382568,506.418640 566.378967,502.301147 568.824097,496.647705 
	C570.521423,492.723114 567.332153,486.685028 566.277893,481.347015 
	C574.897095,473.322449 583.584717,465.234131 592.232483,457.182983 
	C596.040833,458.546265 599.083313,459.907471 602.268555,460.678711 
	C604.344727,461.181396 607.375061,461.750916 608.686768,460.691711 
	C613.666565,456.670135 619.009338,452.766266 622.177368,446.071106 
	C619.421143,444.607269 617.244446,443.190552 614.881104,442.235870 
	C587.490845,431.171661 560.072937,420.175995 532.660583,409.166656 
	C530.501648,408.299591 528.385986,407.250275 526.151062,406.663361 
	C522.067810,405.591125 519.560852,407.574982 519.936340,411.728607 
	C520.140564,413.987244 521.093994,416.193665 521.819885,418.387115 
	C527.856262,436.627411 533.918396,454.859161 540.346741,474.648834 
M468.261780,657.230408 
	C470.220612,651.397095 472.179443,645.563782 474.396057,638.962830 
	C465.943878,636.967590 459.181458,639.238464 452.426544,640.061768 
	C426.099976,643.270264 399.786774,646.597046 373.504089,650.143127 
	C370.897247,650.494873 367.933350,652.170471 366.350372,654.186035 
	C365.717346,654.992126 368.266785,658.450928 369.581055,660.569824 
	C370.263977,661.670898 371.379272,662.518738 372.354431,663.421387 
	C394.281525,683.718933 416.190918,704.035767 438.196045,724.248291 
	C440.013763,725.917847 442.489960,726.870544 445.321869,728.548279 
	C446.725067,725.018494 447.663300,722.228210 448.916504,719.587402 
	C452.594116,711.837402 452.959015,705.093262 444.634949,699.726074 
	C443.008942,698.677673 441.740143,694.938538 442.291168,693.006470 
	C445.264587,682.581299 448.863342,672.334473 451.909485,663.052734 
	C457.950226,661.280701 462.658264,659.899597 468.261780,657.230408 
M369.088257,926.151550 
	C363.504303,930.339722 357.704285,934.274658 352.405487,938.796936 
	C348.248901,942.344421 349.128906,945.825928 354.171783,947.694336 
	C355.710266,948.264343 357.417023,948.364746 359.028168,948.756531 
	C374.518738,952.523071 390.004272,956.310181 405.493256,960.083252 
	C419.373901,963.464478 433.235962,966.926941 447.158234,970.127258 
	C449.703125,970.712219 452.497711,970.210754 455.366333,970.210754 
	C452.074432,949.708801 452.074432,949.708801 436.287842,944.338562 
	C434.243347,934.420471 431.827240,924.110168 430.194031,913.677307 
	C429.834564,911.380981 431.770325,908.229431 433.513367,906.222107 
	C435.826691,903.558228 438.988403,901.630981 441.794312,899.380249 
	C440.187683,892.134705 438.729187,885.557007 436.799561,876.854553 
	C413.272522,893.512329 391.880005,909.584290 369.088257,926.151550 
M1061.566528,347.554474 
	C1055.715942,322.345917 1049.923584,297.123474 1043.942261,271.945953 
	C1043.177124,268.725372 1041.427246,265.738770 1039.731689,261.682343 
	C1036.652222,264.125732 1034.514160,265.225739 1033.201660,266.953156 
	C1014.089172,292.109222 995.054810,317.324982 976.124939,342.618744 
	C974.721863,344.493530 974.260620,347.073242 972.897949,350.486420 
	C980.386536,351.788513 986.900330,354.608582 992.522827,353.373108 
	C997.151184,352.356079 1000.722839,346.529694 1005.163330,342.468384 
	C1016.342529,344.931244 1027.937012,347.485596 1036.510010,349.374329 
	C1043.733643,355.114563 1038.527466,364.696198 1047.770996,366.108185 
	C1053.585205,366.996307 1059.332764,371.117249 1065.614868,367.108734 
	C1064.260132,360.810577 1063.011108,355.004272 1061.566528,347.554474 
M932.727478,267.731323 
	C934.681458,263.248535 936.635376,258.765747 939.262573,252.738235 
	C934.721802,251.944031 931.401855,250.820435 928.102173,250.877182 
	C910.845154,251.173965 893.592957,251.761414 876.340820,252.301529 
	C875.777893,252.319153 875.233032,252.915634 874.173462,253.541199 
	C873.827454,259.985382 872.391113,266.753601 875.228516,273.632965 
	C884.961670,273.743225 894.437805,272.388062 904.708191,274.220276 
	C903.119690,277.853058 902.046082,280.566895 900.771057,283.182465 
	C892.038635,301.095856 883.267334,318.990356 874.500061,336.886719 
	C872.606506,340.751953 870.304749,344.543182 872.709167,349.230225 
	C892.515869,349.230225 912.387512,349.273315 932.258606,349.190491 
	C935.831482,349.175598 937.653381,347.000885 937.692627,343.413666 
	C937.718140,341.085602 937.761169,338.756653 937.725647,336.429169 
	C937.590637,327.587158 935.838501,326.118317 927.046265,326.888000 
	C920.233032,327.484436 913.397339,327.824493 904.665039,328.405334 
	C914.343384,307.464661 923.207031,288.286652 932.727478,267.731323 
M670.051819,386.821533 
	C661.917053,372.859192 653.782227,358.896851 645.438110,344.575226 
	C649.589172,341.963379 652.936096,339.848816 656.291565,337.747986 
	C663.724426,333.094391 663.924500,332.210754 659.270447,324.366211 
	C658.930420,323.793091 658.508789,323.262665 658.217224,322.667297 
	C654.154480,314.370605 651.918945,314.833923 645.277100,318.892883 
	C630.516479,327.913483 615.514832,336.538879 600.687561,345.452087 
	C598.856750,346.552704 597.489441,348.424408 595.450928,350.375702 
	C599.033142,356.080902 602.288635,361.265778 605.894043,367.007965 
	C612.809021,363.285217 618.772278,360.074829 625.192322,356.618530 
	C638.074707,378.332825 650.420715,399.143097 662.860046,420.110596 
	C671.069641,419.383270 676.341003,414.308289 683.476685,409.632965 
	C679.123657,402.186859 674.991211,395.118011 670.051819,386.821533 
M726.562195,334.479797 
	C732.731384,349.987305 736.694336,366.413727 744.865173,381.555511 
	C752.062378,378.774780 758.138794,376.427063 765.365845,373.634796 
	C754.281738,342.963409 743.511780,313.161255 732.686157,283.205078 
	C724.406067,283.454376 718.052307,286.478210 710.916565,290.791962 
	C716.010498,305.048828 721.006104,319.030457 726.562195,334.479797 
z"/>
<path fill="#B47845" opacity="1.000000" stroke="none" 
	d="
M2055.701660,758.000000 
	C2055.701904,838.319641 2055.562744,917.639709 2055.794922,996.958679 
	C2055.856445,1017.896362 2056.626953,1038.856445 2057.854004,1059.760254 
	C2059.380615,1085.768677 2070.589600,1106.983032 2091.596436,1122.709961 
	C2099.492188,1128.620972 2107.545410,1134.321411 2116.660156,1140.940918 
	C2113.827637,1142.015137 2112.239990,1142.944336 2110.556396,1143.175903 
	C2108.265625,1143.490845 2105.901123,1143.282349 2103.568359,1143.282349 
	C1995.920288,1143.283936 1888.272217,1143.288696 1780.624146,1143.263184 
	C1776.750732,1143.262207 1772.877319,1142.959595 1766.816284,1142.706177 
	C1769.798950,1139.541992 1771.020874,1137.785522 1772.654785,1136.593506 
	C1779.101929,1131.889648 1785.769043,1127.485840 1792.190552,1122.748413 
	C1815.044189,1105.888184 1825.117310,1082.462158 1826.214355,1054.792725 
	C1827.044312,1033.860352 1827.596680,1012.902771 1827.629517,991.955383 
	C1827.776367,897.971863 1827.801636,803.987671 1827.604492,710.004333 
	C1827.563599,690.541870 1823.626343,671.664001 1814.977783,654.067810 
	C1799.263794,622.095764 1767.662842,606.809082 1731.349854,610.860779 
	C1709.200928,613.332153 1690.322998,622.218872 1675.145142,638.182922 
	C1663.362671,650.575684 1655.031128,665.396973 1649.228149,681.555847 
	C1641.081909,704.240417 1636.050537,727.662842 1635.839233,751.707458 
	C1635.033936,843.298401 1634.480225,934.894409 1634.566895,1026.487793 
	C1634.583130,1043.623901 1637.243530,1060.876831 1640.024048,1077.856323 
	C1642.635864,1093.805908 1651.468994,1106.842773 1663.844116,1117.162109 
	C1671.236938,1123.326660 1679.191895,1128.816772 1686.891602,1134.613770 
	C1689.419067,1136.516724 1691.938232,1138.430908 1694.247925,1140.178589 
	C1693.643188,1141.511230 1693.545166,1141.817627 1693.375244,1142.077026 
	C1693.197266,1142.348755 1692.951050,1142.791138 1692.734009,1142.791382 
	C1579.769165,1142.974976 1466.804199,1143.129517 1353.839355,1143.258667 
	C1352.190674,1143.260498 1350.524292,1143.031616 1348.902710,1142.720093 
	C1348.359253,1142.615479 1347.930054,1141.916504 1346.841431,1140.950684 
	C1348.460083,1139.408691 1349.892456,1137.749023 1351.605469,1136.463379 
	C1359.049805,1130.876343 1366.644775,1125.489014 1374.058594,1119.862549 
	C1391.772095,1106.419312 1400.951782,1088.047729 1403.681885,1066.416870 
	C1405.175293,1054.584961 1406.174438,1042.602051 1406.189941,1030.685669 
	C1406.362305,898.375366 1406.425659,766.064514 1406.121460,633.754761 
	C1406.087280,618.894287 1404.307739,603.934998 1402.097168,589.207764 
	C1399.177368,569.756348 1389.813232,553.373413 1374.307007,541.095215 
	C1365.723999,534.299011 1356.348755,528.502869 1347.326416,522.262207 
	C1344.717285,520.457520 1342.093018,518.674683 1337.903442,515.804749 
	C1347.941528,512.758850 1356.147583,514.390564 1364.176270,514.085449 
	C1372.163330,513.781982 1380.170898,514.018982 1388.169556,514.018982 
	C1396.501465,514.018982 1404.833252,514.018982 1413.165161,514.018982 
	C1421.163818,514.018982 1429.162476,514.018982 1437.161133,514.018982 
	C1445.493042,514.018982 1453.824829,514.018982 1462.156738,514.018982 
	C1470.155396,514.018982 1478.153931,514.018982 1486.152588,514.018982 
	C1494.484497,514.018982 1502.816406,514.018982 1511.148315,514.018982 
	C1519.146973,514.018982 1527.145508,514.018982 1535.144165,514.018982 
	C1543.476074,514.018982 1551.807983,514.018982 1560.139893,514.018982 
	C1568.138550,514.018982 1576.137085,514.018982 1584.135742,514.018982 
	C1592.467651,514.018982 1600.799438,514.018982 1609.131348,514.018982 
	C1617.076904,514.018982 1625.022339,514.018921 1633.666992,514.018921 
	C1633.666992,566.242065 1633.666992,617.751648 1633.666992,669.261292 
	C1634.127930,669.416443 1634.588867,669.571655 1635.049805,669.726807 
	C1635.944458,668.055969 1636.959351,666.436401 1637.701050,664.700195 
	C1638.483887,662.867798 1639.002930,660.922913 1639.643433,659.029358 
	C1648.986206,631.409973 1661.936646,605.714111 1680.010742,582.695862 
	C1714.972412,538.169983 1760.694946,512.353333 1816.486572,504.000916 
	C1854.917725,498.247467 1892.748535,500.637939 1929.724243,512.970459 
	C1978.239502,529.151733 2012.464233,561.321899 2033.571899,607.499756 
	C2045.690430,634.011719 2052.837891,662.011353 2054.206299,691.190918 
	C2055.233643,713.102478 2055.240234,735.061890 2055.701660,758.000000 
z"/>
<path fill="#B47845" opacity="1.000000" stroke="none" 
	d="
M572.076538,788.418945 
	C566.685791,795.090210 566.672607,795.114319 560.677673,791.831665 
	C551.655212,786.891052 542.653381,781.912903 533.227966,776.722290 
	C535.181335,769.595337 540.071777,764.554260 544.553284,759.526306 
	C563.972046,737.739624 587.585022,722.013855 615.011902,712.037598 
	C631.010498,706.218201 647.365173,701.784607 664.344727,700.049438 
	C670.377625,699.432861 674.131226,697.469421 676.803833,691.051392 
	C693.533386,650.877197 717.917053,615.796570 749.831238,586.183716 
	C782.942566,555.460022 821.055115,532.873230 863.738953,518.060364 
	C905.663879,503.510925 948.897400,497.011749 993.183411,498.093811 
	C1044.944214,499.358582 1095.108398,508.301208 1141.684814,532.159180 
	C1189.630615,556.718628 1226.054199,592.892395 1250.551758,641.070740 
	C1268.093628,675.569641 1278.585693,712.030334 1282.285400,750.469055 
	C1283.714111,765.312195 1285.221558,780.193970 1285.583740,795.085144 
	C1286.775635,844.081970 1257.010986,875.564514 1212.275269,884.032471 
	C1184.346191,889.319153 1156.702637,886.578613 1129.171875,881.146851 
	C1080.936157,871.630066 1035.182373,854.557861 990.601135,834.345764 
	C957.885620,819.513428 925.727905,803.451477 893.302185,787.978455 
	C890.064941,786.433716 886.691772,785.173706 881.729065,783.086670 
	C881.729065,795.560425 881.254578,806.710876 881.814087,817.809204 
	C883.854187,858.280151 891.004272,897.776367 908.516724,934.594482 
	C939.398132,999.519470 989.611755,1038.742920 1062.141113,1046.729248 
	C1100.199219,1050.919800 1137.103882,1046.020386 1172.416138,1030.610596 
	C1204.677856,1016.532043 1230.418091,994.601929 1250.408936,965.853516 
	C1257.031738,956.329651 1262.876953,946.265076 1269.644409,935.550598 
	C1272.265991,936.559021 1275.154663,937.670227 1279.060547,939.172729 
	C1276.203247,948.384460 1273.994263,957.038818 1270.868286,965.348267 
	C1237.113159,1055.075928 1173.678589,1112.796997 1082.030029,1139.945801 
	C1042.996948,1151.508545 1002.944275,1155.031494 962.545654,1153.083374 
	C912.554504,1150.672485 864.398376,1139.557739 819.494202,1116.912354 
	C752.051147,1082.900513 703.354187,1031.194946 674.969360,960.888428 
	C661.033875,926.371643 653.402405,890.449219 651.672058,853.264343 
	C651.302368,845.318237 650.443542,837.383484 650.355896,829.437561 
	C650.051086,801.793579 653.064880,774.466675 658.785278,747.428284 
	C659.110413,745.891357 659.253723,744.315979 659.482910,742.749817 
	C642.063904,740.500122 595.251343,758.973938 572.076538,788.418945 
M1064.302002,696.881348 
	C1063.638062,686.618591 1062.827881,676.362854 1062.340576,666.091675 
	C1061.315796,644.491211 1058.494629,623.125732 1053.801392,602.039185 
	C1049.159546,581.183411 1042.800293,561.085876 1029.647949,543.569275 
	C1015.005371,524.068115 990.847412,516.742737 966.321167,523.629883 
	C951.478943,527.797729 940.933105,537.789062 931.665100,549.370850 
	C917.034851,567.653748 908.890930,589.127502 902.456360,611.243774 
	C890.809631,651.275330 886.553711,692.476807 883.776855,733.900391 
	C883.403870,739.464355 886.063049,741.314209 890.417847,743.325745 
	C912.450134,753.502441 934.312683,764.045898 956.289673,774.343567 
	C979.452942,785.197144 1002.570679,796.159119 1025.919800,806.600830 
	C1038.558594,812.252991 1051.638672,816.918945 1064.302368,821.943481 
	C1064.302368,780.258850 1064.302368,739.541687 1064.302002,696.881348 
z"/>
<path fill="#B47845" opacity="1.000000" stroke="none" 
	d="
M2562.000000,514.017090 
	C2630.944092,514.017151 2698.887939,514.017151 2768.695801,514.017151 
	C2766.314697,518.707397 2764.780029,522.222900 2762.832520,525.492249 
	C2735.925781,570.654358 2708.957275,615.779541 2682.013672,660.919739 
	C2614.492676,774.043640 2546.994873,887.181213 2479.448730,1000.290039 
	C2458.804688,1034.859619 2438.027100,1069.349243 2417.337646,1103.891846 
	C2415.517334,1106.930908 2413.897217,1110.089844 2411.280273,1114.830933 
	C2416.171875,1114.830933 2419.363281,1114.830933 2422.554688,1114.830933 
	C2450.883545,1114.830933 2479.216553,1115.145386 2507.540283,1114.765137 
	C2564.980957,1113.994263 2614.643311,1094.375610 2655.675049,1053.475342 
	C2685.261963,1023.983154 2710.147461,990.723877 2734.711914,957.170044 
	C2746.499268,941.068787 2757.899170,924.684143 2769.543945,908.477722 
	C2771.215576,906.151611 2773.279297,904.107178 2774.955078,902.170776 
	C2776.026123,902.512634 2776.382812,902.555054 2776.649414,902.732666 
	C2776.892578,902.894348 2777.231201,903.231506 2777.199707,903.442139 
	C2765.254883,983.041748 2753.281738,1062.637207 2741.353027,1141.941528 
	C2730.560059,1144.035156 2157.776855,1143.704956 2148.883057,1141.376099 
	C2269.166504,941.798096 2389.599854,742.815735 2510.609619,542.028625 
	C2506.047119,542.028625 2503.202881,542.028625 2500.358643,542.028625 
	C2471.696533,542.028625 2443.033936,541.952026 2414.372070,542.046936 
	C2373.067871,542.183716 2335.847900,554.416016 2303.125732,579.878784 
	C2277.719971,599.648315 2256.214600,623.223633 2237.170654,648.965088 
	C2218.189941,674.620850 2200.171631,700.987366 2181.578613,726.932800 
	C2179.660400,729.609619 2179.059814,734.254150 2172.850342,733.572632 
	C2178.716797,656.677429 2184.579102,579.837036 2190.505127,502.159241 
	C2193.104736,502.680359 2195.260498,502.893677 2197.272461,503.549530 
	C2219.299561,510.730255 2242.067139,513.810425 2265.049561,513.883423 
	C2363.698975,514.196655 2462.349609,514.017090 2562.000000,514.017090 
z"/>
<path fill="#B47845" opacity="1.000000" stroke="none" 
	d="
M3116.306641,710.000000 
	C3116.306396,816.947510 3116.150635,922.895508 3116.484863,1028.841919 
	C3116.531738,1043.702393 3118.050781,1058.713257 3120.539307,1073.374146 
	C3124.157227,1094.687866 3136.190430,1111.199585 3153.588867,1123.824951 
	C3159.236816,1127.923462 3165.046875,1131.797974 3170.705322,1135.882568 
	C3172.724365,1137.340210 3174.514404,1139.115234 3176.806641,1141.087280 
	C3175.127197,1142.133911 3174.342041,1143.051392 3173.556641,1143.052002 
	C3059.950928,1143.137573 2946.345215,1143.160522 2832.739502,1143.121338 
	C2831.591553,1143.120972 2830.444092,1142.258789 2827.530273,1141.090942 
	C2831.665527,1138.041382 2834.827637,1135.916016 2837.759277,1133.509766 
	C2847.482910,1125.529175 2857.590820,1117.938232 2866.681396,1109.283569 
	C2878.798096,1097.747437 2883.527344,1082.303955 2885.526123,1066.270264 
	C2887.206543,1052.790771 2888.164062,1039.130737 2888.184326,1025.548706 
	C2888.375732,896.612854 2888.383057,767.676514 2888.178467,638.740723 
	C2888.156006,624.493469 2887.098145,610.176208 2885.437744,596.018372 
	C2882.125244,567.764404 2867.519775,546.467163 2843.515869,531.458008 
	C2838.156494,528.106873 2832.758789,524.814453 2827.464844,521.362488 
	C2825.363770,519.992310 2823.497803,518.261353 2821.666748,516.807434 
	C2822.217773,515.714294 2822.343994,515.401245 2822.524658,515.123657 
	C2822.691162,514.867493 2822.891846,514.476501 2823.120605,514.443542 
	C2824.432129,514.255005 2825.756348,514.041992 2827.076416,514.041748 
	C2922.985840,514.024048 3018.895508,514.025635 3116.302979,514.025635 
	C3116.304199,547.082458 3116.305908,579.565369 3116.306396,612.048218 
	C3116.307129,644.365479 3116.306641,676.682739 3116.306641,710.000000 
z"/>
<path fill="#B47745" opacity="1.000000" stroke="none" 
	d="
M2884.947754,244.979889 
	C2909.453857,218.140610 2939.372803,204.445633 2974.822510,201.897064 
	C3015.246826,198.990860 3051.192627,209.381592 3081.234619,237.148621 
	C3103.903076,258.100464 3116.099609,284.169708 3118.448975,315.147552 
	C3120.145996,337.522766 3116.936523,358.886444 3107.032471,378.852234 
	C3090.310303,412.562744 3063.259521,434.446045 3027.116699,444.527130 
	C2988.257080,455.365906 2950.315430,452.609741 2915.523682,431.363190 
	C2873.230469,405.535400 2853.839600,366.553314 2855.920654,317.286041 
	C2857.061768,290.276306 2866.911621,266.228638 2884.947754,244.979889 
z"/>
<path fill="#B67A48" opacity="1.000000" stroke="none" 
	d="
M357.087036,762.697266 
	C376.651489,755.435852 386.400726,759.342102 401.250061,780.240356 
	C407.340912,777.434937 413.594971,774.572449 419.833130,771.675781 
	C425.738220,768.933777 431.626587,766.155884 438.326233,763.017151 
	C440.719208,771.644592 439.892395,778.823364 439.096008,785.858215 
	C438.918427,787.426575 436.019287,789.083252 434.046631,789.984680 
	C424.371674,794.406189 414.652466,798.747803 404.808899,802.775513 
	C400.645874,804.478943 399.141327,806.988220 400.562592,812.466553 
	C403.493744,812.924927 406.911926,813.710754 410.367615,813.946167 
	C417.000641,814.398071 423.660461,814.444092 430.298920,814.833313 
	C436.964508,815.224182 437.961273,816.471191 437.230865,822.683777 
	C436.691101,827.274780 436.192749,831.870728 435.583313,837.288147 
	C427.734070,837.288147 419.885345,837.632568 412.076294,837.222168 
	C390.521851,836.089417 368.984100,834.639832 347.439453,833.319946 
	C345.779388,833.218201 343.745148,833.717896 342.545105,832.931030 
	C340.837067,831.810974 338.496399,829.693420 338.578186,828.113464 
	C339.298035,814.211304 340.518524,800.335510 341.544342,786.448486 
	C342.318268,775.971680 347.498322,768.337646 357.087036,762.697266 
M381.396240,810.166748 
	C381.683441,804.566772 382.172791,798.967834 382.201752,793.366516 
	C382.231537,787.605774 378.024841,782.665894 373.101959,782.090515 
	C368.676666,781.573303 363.347107,784.502075 362.516907,789.191833 
	C361.293976,796.100281 361.174316,803.203979 360.475128,811.529419 
	C367.851135,811.529419 374.033661,811.529419 381.396240,810.166748 
z"/>
<path fill="#B67A48" opacity="1.000000" stroke="none" 
	d="
M460.851685,1076.513794 
	C462.348358,1079.733521 464.130463,1079.128174 466.066620,1078.161133 
	C473.200256,1074.597900 480.341827,1071.050049 487.501587,1067.539551 
	C490.413666,1066.111694 493.380066,1064.794678 497.302734,1062.971069 
	C500.728210,1069.785400 503.772522,1075.841309 507.322235,1082.902710 
	C478.176117,1097.770020 449.906097,1112.190552 420.340790,1127.271729 
	C416.744354,1120.277832 413.519897,1114.007324 409.747284,1106.670898 
	C421.028503,1100.847412 431.527283,1095.427856 442.750824,1089.634277 
	C437.042969,1078.259033 431.607086,1067.425903 425.909424,1056.070923 
	C414.896545,1061.441162 404.552002,1066.485474 393.860443,1071.698975 
	C388.198547,1065.835938 384.679871,1059.502686 383.350739,1051.009888 
	C412.087952,1036.656372 440.462708,1022.483887 469.244965,1008.107910 
	C473.558380,1015.279297 478.157990,1020.892517 478.139526,1029.065918 
	C467.443817,1034.620972 456.917084,1040.088257 445.680054,1045.924438 
	C450.866577,1056.423218 455.678558,1066.163696 460.851685,1076.513794 
z"/>
<path fill="#B67A49" opacity="1.000000" stroke="none" 
	d="
M452.899139,547.129395 
	C449.566650,536.722778 446.927368,526.022400 442.681641,516.002808 
	C439.304901,508.033997 439.278839,501.479645 444.938995,494.889008 
	C447.061737,492.417297 448.746368,489.569305 450.372589,487.259521 
	C456.347412,486.811432 456.676147,491.156158 457.823975,494.356750 
	C462.861847,508.403992 467.721100,522.515259 472.916168,537.378906 
	C492.565125,535.662720 512.227539,533.945374 532.907227,532.139160 
	C532.907227,534.988159 533.147766,537.124756 532.816467,539.168701 
	C532.619812,540.382080 531.302002,541.370483 530.863708,542.594543 
	C526.612061,554.469055 517.396057,557.337585 505.875183,557.473572 
	C494.972015,557.602356 484.083221,558.950256 471.586182,559.881287 
	C474.108276,562.219910 475.454712,563.875061 477.158630,564.977844 
	C484.411163,569.671997 491.853699,574.075073 499.061646,578.834717 
	C504.477997,582.411194 504.771729,583.845032 501.440582,589.329529 
	C498.743713,593.769653 495.661926,597.976013 492.274109,602.991882 
	C487.792633,600.270874 484.145264,598.121460 480.562042,595.869934 
	C460.021210,582.963074 439.451172,570.101929 418.985260,557.077209 
	C409.912384,551.303162 409.994598,551.134888 415.646423,541.603455 
	C416.999695,539.321228 418.536163,537.148376 419.950775,534.901550 
	C420.663086,533.770142 421.291290,532.585815 422.339264,530.760803 
	C432.444885,536.978271 441.397034,542.486023 451.245880,548.584412 
	C452.394775,548.493103 452.646942,547.811279 452.899139,547.129395 
z"/>
<path fill="#B67A49" opacity="1.000000" stroke="none" 
	d="
M540.159790,473.871155 
	C533.918396,454.859161 527.856262,436.627411 521.819885,418.387115 
	C521.093994,416.193665 520.140564,413.987244 519.936340,411.728607 
	C519.560852,407.574982 522.067810,405.591125 526.151062,406.663361 
	C528.385986,407.250275 530.501648,408.299591 532.660583,409.166656 
	C560.072937,420.175995 587.490845,431.171661 614.881104,442.235870 
	C617.244446,443.190552 619.421143,444.607269 622.177368,446.071106 
	C619.009338,452.766266 613.666565,456.670135 608.686768,460.691711 
	C607.375061,461.750916 604.344727,461.181396 602.268555,460.678711 
	C599.083313,459.907471 596.040833,458.546265 592.232483,457.182983 
	C583.584717,465.234131 574.897095,473.322449 566.277893,481.347015 
	C567.332153,486.685028 570.521423,492.723114 568.824097,496.647705 
	C566.378967,502.301147 560.382568,506.418640 554.739868,512.429199 
	C546.665222,499.970947 544.952026,486.712585 540.159790,473.871155 
M553.104736,440.600281 
	C552.045959,447.789825 555.934265,453.431458 558.770020,460.482849 
	C563.257385,456.358002 567.065857,452.857239 572.090454,448.238586 
	C565.316223,445.415894 559.934570,443.173401 553.104736,440.600281 
z"/>
<path fill="#B67A48" opacity="1.000000" stroke="none" 
	d="
M467.814056,657.874451 
	C462.658264,659.899597 457.950226,661.280701 451.909485,663.052734 
	C448.863342,672.334473 445.264587,682.581299 442.291168,693.006470 
	C441.740143,694.938538 443.008942,698.677673 444.634949,699.726074 
	C452.959015,705.093262 452.594116,711.837402 448.916504,719.587402 
	C447.663300,722.228210 446.725067,725.018494 445.321869,728.548279 
	C442.489960,726.870544 440.013763,725.917847 438.196045,724.248291 
	C416.190918,704.035767 394.281525,683.718933 372.354431,663.421387 
	C371.379272,662.518738 370.263977,661.670898 369.581055,660.569824 
	C368.266785,658.450928 365.717346,654.992126 366.350372,654.186035 
	C367.933350,652.170471 370.897247,650.494873 373.504089,650.143127 
	C399.786774,646.597046 426.099976,643.270264 452.426544,640.061768 
	C459.181458,639.238464 465.943878,636.967590 474.396057,638.962830 
	C472.179443,645.563782 470.220612,651.397095 467.814056,657.874451 
M423.547119,681.037842 
	C425.868073,675.883606 428.189026,670.729431 431.218781,664.001099 
	C422.805908,665.087708 416.291199,665.929138 407.769562,667.029785 
	C413.702454,672.514404 418.005829,676.492615 423.547119,681.037842 
z"/>
<path fill="#B67A48" opacity="1.000000" stroke="none" 
	d="
M369.698730,925.776978 
	C391.880005,909.584290 413.272522,893.512329 436.799561,876.854553 
	C438.729187,885.557007 440.187683,892.134705 441.794312,899.380249 
	C438.988403,901.630981 435.826691,903.558228 433.513367,906.222107 
	C431.770325,908.229431 429.834564,911.380981 430.194031,913.677307 
	C431.827240,924.110168 434.243347,934.420471 436.287842,944.338562 
	C452.074432,949.708801 452.074432,949.708801 455.366333,970.210754 
	C452.497711,970.210754 449.703125,970.712219 447.158234,970.127258 
	C433.235962,966.926941 419.373901,963.464478 405.493256,960.083252 
	C390.004272,956.310181 374.518738,952.523071 359.028168,948.756531 
	C357.417023,948.364746 355.710266,948.264343 354.171783,947.694336 
	C349.128906,945.825928 348.248901,942.344421 352.405487,938.796936 
	C357.704285,934.274658 363.504303,930.339722 369.698730,925.776978 
M411.734985,924.610474 
	C411.036896,924.122559 409.944061,923.062012 409.698730,923.231018 
	C404.414429,926.872986 399.224792,930.652344 392.398346,935.571350 
	C401.031921,937.414490 407.294495,938.751465 414.780823,940.349609 
	C413.665649,934.424744 412.877441,930.237061 411.734985,924.610474 
z"/>
<path fill="#B67A48" opacity="1.000000" stroke="none" 
	d="
M1061.664307,348.376221 
	C1063.011108,355.004272 1064.260132,360.810577 1065.614868,367.108734 
	C1059.332764,371.117249 1053.585205,366.996307 1047.770996,366.108185 
	C1038.527466,364.696198 1043.733643,355.114563 1036.510010,349.374329 
	C1027.937012,347.485596 1016.342529,344.931244 1005.163330,342.468384 
	C1000.722839,346.529694 997.151184,352.356079 992.522827,353.373108 
	C986.900330,354.608582 980.386536,351.788513 972.897949,350.486420 
	C974.260620,347.073242 974.721863,344.493530 976.124939,342.618744 
	C995.054810,317.324982 1014.089172,292.109222 1033.201660,266.953156 
	C1034.514160,265.225739 1036.652222,264.125732 1039.731689,261.682343 
	C1041.427246,265.738770 1043.177124,268.725372 1043.942261,271.945953 
	C1049.923584,297.123474 1055.715942,322.345917 1061.664307,348.376221 
M1034.524658,325.374634 
	C1033.174927,319.691650 1031.825195,314.008636 1029.943604,306.085815 
	C1024.891479,313.168579 1021.217529,318.319397 1016.142456,325.434479 
	C1023.887512,326.027740 1029.237671,326.437561 1034.524658,325.374634 
z"/>
<path fill="#B67B4A" opacity="1.000000" stroke="none" 
	d="
M932.399109,268.419983 
	C923.207031,288.286652 914.343384,307.464661 904.665039,328.405334 
	C913.397339,327.824493 920.233032,327.484436 927.046265,326.888000 
	C935.838501,326.118317 937.590637,327.587158 937.725647,336.429169 
	C937.761169,338.756653 937.718140,341.085602 937.692627,343.413666 
	C937.653381,347.000885 935.831482,349.175598 932.258606,349.190491 
	C912.387512,349.273315 892.515869,349.230225 872.709167,349.230225 
	C870.304749,344.543182 872.606506,340.751953 874.500061,336.886719 
	C883.267334,318.990356 892.038635,301.095856 900.771057,283.182465 
	C902.046082,280.566895 903.119690,277.853058 904.708191,274.220276 
	C894.437805,272.388062 884.961670,273.743225 875.228516,273.632965 
	C872.391113,266.753601 873.827454,259.985382 874.173462,253.541199 
	C875.233032,252.915634 875.777893,252.319153 876.340820,252.301529 
	C893.592957,251.761414 910.845154,251.173965 928.102173,250.877182 
	C931.401855,250.820435 934.721802,251.944031 939.262573,252.738235 
	C936.635376,258.765747 934.681458,263.248535 932.399109,268.419983 
z"/>
<path fill="#B67A48" opacity="1.000000" stroke="none" 
	d="
M670.455261,387.435364 
	C674.991211,395.118011 679.123657,402.186859 683.476685,409.632965 
	C676.341003,414.308289 671.069641,419.383270 662.860046,420.110596 
	C650.420715,399.143097 638.074707,378.332825 625.192322,356.618530 
	C618.772278,360.074829 612.809021,363.285217 605.894043,367.007965 
	C602.288635,361.265778 599.033142,356.080902 595.450928,350.375702 
	C597.489441,348.424408 598.856750,346.552704 600.687561,345.452087 
	C615.514832,336.538879 630.516479,327.913483 645.277100,318.892883 
	C651.918945,314.833923 654.154480,314.370605 658.217224,322.667297 
	C658.508789,323.262665 658.930420,323.793091 659.270447,324.366211 
	C663.924500,332.210754 663.724426,333.094391 656.291565,337.747986 
	C652.936096,339.848816 649.589172,341.963379 645.438110,344.575226 
	C653.782227,358.896851 661.917053,372.859192 670.455261,387.435364 
z"/>
<path fill="#B67B4A" opacity="1.000000" stroke="none" 
	d="
M726.281982,333.745941 
	C721.006104,319.030457 716.010498,305.048828 710.916565,290.791962 
	C718.052307,286.478210 724.406067,283.454376 732.686157,283.205078 
	C743.511780,313.161255 754.281738,342.963409 765.365845,373.634796 
	C758.138794,376.427063 752.062378,378.774780 744.865173,381.555511 
	C736.694336,366.413727 732.731384,349.987305 726.281982,333.745941 
z"/>
<path fill="#FFFEFE" opacity="1.000000" stroke="none" 
	d="
M1064.302246,697.852905 
	C1064.302368,739.541687 1064.302368,780.258850 1064.302368,821.943481 
	C1051.638672,816.918945 1038.558594,812.252991 1025.919800,806.600830 
	C1002.570679,796.159119 979.452942,785.197144 956.289673,774.343567 
	C934.312683,764.045898 912.450134,753.502441 890.417847,743.325745 
	C886.063049,741.314209 883.403870,739.464355 883.776855,733.900391 
	C886.553711,692.476807 890.809631,651.275330 902.456360,611.243774 
	C908.890930,589.127502 917.034851,567.653748 931.665100,549.370850 
	C940.933105,537.789062 951.478943,527.797729 966.321167,523.629883 
	C990.847412,516.742737 1015.005371,524.068115 1029.647949,543.569275 
	C1042.800293,561.085876 1049.159546,581.183411 1053.801392,602.039185 
	C1058.494629,623.125732 1061.315796,644.491211 1062.340576,666.091675 
	C1062.827881,676.362854 1063.638062,686.618591 1064.302246,697.852905 
z"/>
<path fill="#FCFAF8" opacity="1.000000" stroke="none" 
	d="
M380.806213,810.848083 
	C374.033661,811.529419 367.851135,811.529419 360.475128,811.529419 
	C361.174316,803.203979 361.293976,796.100281 362.516907,789.191833 
	C363.347107,784.502075 368.676666,781.573303 373.101959,782.090515 
	C378.024841,782.665894 382.231537,787.605774 382.201752,793.366516 
	C382.172791,798.967834 381.683441,804.566772 380.806213,810.848083 
z"/>
<path fill="#FFFFFF" opacity="1.000000" stroke="none" 
	d="
M452.591553,547.424927 
	C452.646942,547.811279 452.394775,548.493103 451.916412,548.754028 
	C451.690216,548.333008 452.283966,547.720459 452.591553,547.424927 
z"/>
<path fill="#F6F1EB" opacity="1.000000" stroke="none" 
	d="
M553.828796,440.765625 
	C559.934570,443.173401 565.316223,445.415894 572.090454,448.238586 
	C567.065857,452.857239 563.257385,456.358002 558.770020,460.482849 
	C555.934265,453.431458 552.045959,447.789825 553.828796,440.765625 
z"/>
<path fill="#F6F1EB" opacity="1.000000" stroke="none" 
	d="
M422.928162,680.754333 
	C418.005829,676.492615 413.702454,672.514404 407.769562,667.029785 
	C416.291199,665.929138 422.805908,665.087708 431.218781,664.001099 
	C428.189026,670.729431 425.868073,675.883606 422.928162,680.754333 
z"/>
<path fill="#F6F1EB" opacity="1.000000" stroke="none" 
	d="
M411.912109,925.329956 
	C412.877441,930.237061 413.665649,934.424744 414.780823,940.349609 
	C407.294495,938.751465 401.031921,937.414490 392.398346,935.571350 
	C399.224792,930.652344 404.414429,926.872986 409.698730,923.231018 
	C409.944061,923.062012 411.036896,924.122559 411.912109,925.329956 
z"/>
<path fill="#F6F1EB" opacity="1.000000" stroke="none" 
	d="
M1034.556274,326.111023 
	C1029.237671,326.437561 1023.887512,326.027740 1016.142456,325.434479 
	C1021.217529,318.319397 1024.891479,313.168579 1029.943604,306.085815 
	C1031.825195,314.008636 1033.174927,319.691650 1034.556274,326.111023 
z"/>
</svg>